<svg width="184" height="247" viewBox="0 0 184 247" fill="none" xmlns="http://www.w3.org/2000/svg">
<path d="M58.1333 82.2609C85.0593 79.006 104.787 59.2866 102.197 38.2163C99.6074 17.146 75.6799 2.7037 48.7539 5.95858C21.8279 9.21345 2.09965 28.9329 4.6897 50.0032C7.27974 71.0735 31.2072 85.5158 58.1333 82.2609Z" fill="black"/>
<path d="M56.048 74.0302C79.581 71.1855 96.8326 54.0275 94.5805 35.7068C92.3285 17.3861 71.4256 4.84039 47.8925 7.68511C24.3595 10.5298 7.10788 27.6878 9.35993 46.0085C11.612 64.3292 32.5149 76.8749 56.048 74.0302Z" fill="white"/>
<path d="M49.376 75.0431C40.2635 75.0431 31.5778 72.7847 24.3947 68.4737C15.402 63.0785 9.8357 55.1146 8.71893 46.052C6.42398 27.4078 23.965 9.89134 47.8149 7.00672C59.3422 5.61225 70.6123 7.80108 79.5553 13.1673C88.548 18.5626 94.1143 26.5265 95.2281 35.5891C96.342 44.6517 92.8718 53.7057 85.4491 61.0897C78.0702 68.4302 67.6566 73.2399 56.1322 74.6344C53.8636 74.9098 51.6037 75.0431 49.3731 75.0431H49.376ZM54.5798 7.88805C52.3989 7.88805 50.1917 8.02141 47.9757 8.28813C24.8391 11.0858 7.80681 27.9586 10.0141 45.8954C11.0782 54.5551 16.4253 62.1798 25.0701 67.3663C33.7645 72.5847 44.7423 74.7068 55.9773 73.3472C67.2152 71.9875 77.3539 67.3083 84.5282 60.1707C91.6615 53.0765 95.003 44.3995 93.9389 35.7398C92.8747 27.0802 87.5276 19.4555 78.8829 14.269C71.9045 10.0827 63.4526 7.88516 54.5798 7.88516V7.88805Z" fill="black"/>
<path d="M54.0303 52.6637C63.1818 51.5558 69.8858 44.8522 69.0042 37.6906C68.1226 30.529 59.9892 25.6216 50.8377 26.7294C41.6863 27.8373 34.9823 34.5409 35.8639 41.7025C36.7455 48.8641 44.8789 53.7715 54.0303 52.6637Z" fill="white"/>
<path d="M51.437 53.5027C47.8148 53.5027 44.3592 52.5982 41.5 50.8703C37.8953 48.696 35.6618 45.478 35.2116 41.8135C34.7613 38.149 36.15 34.4961 39.1203 31.5245C42.0525 28.5935 46.1835 26.6743 50.7529 26.1235C60.2455 24.9754 68.7207 30.1445 69.6445 37.6503C70.5684 45.1533 63.5958 52.1923 54.1003 53.3404C53.2057 53.4476 52.3169 53.5027 51.437 53.5027ZM53.3987 27.257C52.5801 27.257 51.7527 27.3063 50.9108 27.4078C46.6278 27.9267 42.7688 29.7126 40.0441 32.4377C37.3603 35.1223 36.1003 38.3983 36.5038 41.6598C36.9043 44.9213 38.9215 47.803 42.1783 49.7686C45.4848 51.7632 49.6654 52.5779 53.9454 52.0589C62.7246 50.9979 69.1885 44.6024 68.3524 37.8069C67.5952 31.6608 61.1225 27.257 53.3987 27.257Z" fill="black"/>
<path d="M54.2991 54.2321C62.4729 53.2426 68.4709 47.3383 67.6962 41.0445C66.9214 34.7507 59.6671 30.4508 51.4933 31.4403C43.3195 32.4298 37.3214 38.3341 38.0962 44.6278C38.871 50.9216 46.1253 55.2216 54.2991 54.2321Z" fill="black"/>
<path d="M160.364 209.792C169.589 189.607 156.09 163.816 130.212 152.187C104.335 140.557 75.8795 147.492 66.6547 167.678C57.4299 187.863 70.9292 213.654 96.8063 225.283C122.683 236.913 151.139 229.978 160.364 209.792Z" fill="black"/>
<path d="M154.919 203.444C162.939 185.894 151.108 163.428 128.492 153.264C105.877 143.1 81.0419 149.088 73.0214 166.638C65.0009 184.188 76.8323 206.654 99.4476 216.818C122.063 226.981 146.898 220.994 154.919 203.444Z" fill="white"/>
<path d="M121.832 222.385C114.482 222.385 106.703 220.779 99.1721 217.393C76.2665 207.098 64.2655 184.206 72.4192 166.36C80.5757 148.513 105.846 142.369 128.752 152.664C151.658 162.959 163.659 185.85 155.505 203.697C150.029 215.676 136.838 222.382 121.832 222.385ZM106.069 148.959C91.571 148.959 78.8655 155.386 73.6061 166.893C65.7478 184.09 77.4564 206.217 99.71 216.216C121.961 226.215 146.457 220.361 154.318 203.164C162.176 185.966 150.468 163.84 128.214 153.841C120.85 150.533 113.24 148.959 106.069 148.959Z" fill="black"/>
<path d="M130.892 191.469C134.027 184.609 129.439 175.844 120.645 171.892C111.851 167.939 102.18 170.297 99.0449 177.157C95.9097 184.017 100.497 192.782 109.292 196.734C118.086 200.687 127.757 198.33 130.892 191.469Z" fill="white"/>
<path d="M117.971 199.291C115 199.291 111.931 198.621 109.019 197.314C99.9121 193.22 95.1673 184.056 98.4474 176.881C100.047 173.379 103.286 170.877 107.563 169.833C111.784 168.804 116.523 169.323 120.912 171.294C125.297 173.266 128.817 176.458 130.819 180.284C132.848 184.161 133.085 188.225 131.486 191.727C129.887 195.229 126.647 197.734 122.37 198.775C120.953 199.12 119.476 199.291 117.976 199.291H117.971ZM111.96 170.607C110.562 170.607 109.188 170.767 107.873 171.086C103.99 172.031 101.064 174.277 99.6344 177.411C96.6524 183.937 101.105 192.336 109.557 196.134C113.679 197.986 118.12 198.476 122.055 197.517C125.937 196.572 128.864 194.325 130.293 191.191C131.726 188.057 131.501 184.395 129.659 180.876C127.791 177.307 124.49 174.321 120.371 172.468C117.629 171.236 114.743 170.607 111.96 170.607Z" fill="black"/>
<path d="M127.888 193.754C130.643 187.725 126.508 179.975 118.652 176.445C110.796 172.914 102.194 174.939 99.4385 180.968C96.6833 186.997 100.818 194.746 108.674 198.277C116.53 201.808 125.133 199.783 127.888 193.754Z" fill="black"/>
<path d="M136.658 139.595C162.495 129.336 176.739 104.423 168.472 83.949C160.206 63.4749 132.56 55.1934 106.723 65.4517C80.8859 75.7099 66.642 100.623 74.9083 121.097C83.1746 141.571 110.821 149.853 136.658 139.595Z" fill="black"/>
<path d="M132.36 131.876C154.94 122.911 167.418 101.213 160.231 83.4111C153.044 65.6097 128.913 58.4464 106.333 67.4114C83.7533 76.3764 71.2751 98.0749 78.4623 115.876C85.6495 133.678 109.781 140.841 132.36 131.876Z" fill="#FEDF53"/>
<path d="M112.618 136.377C108.086 136.377 103.651 135.759 99.4531 134.512C89.0776 131.434 81.4093 124.893 77.8572 116.097C74.3052 107.301 75.3021 97.3197 80.6667 87.9903C86.0021 78.7103 95.0328 71.1813 106.089 66.7891C117.146 62.3999 128.919 61.6693 139.239 64.7308C149.615 67.8096 157.283 74.35 160.835 83.1459C168.144 101.248 155.479 123.368 132.603 132.451C126.042 135.057 119.228 136.374 112.618 136.374V136.377ZM126.074 64.1596C119.628 64.1596 112.98 65.4439 106.575 67.9894C95.79 72.2714 86.9903 79.6032 81.8011 88.6311C76.6382 97.6096 75.6675 107.194 79.0676 115.616C82.4676 124.038 89.8406 130.309 99.8273 133.275C109.867 136.255 121.336 135.536 132.12 131.254C154.33 122.435 166.67 101.068 159.627 83.6272C156.227 75.2053 148.854 68.9345 138.868 65.9687C134.792 64.7598 130.48 64.1596 126.077 64.1596H126.074Z" fill="black"/>
<path d="M124.586 111.033C133.367 107.546 138.207 99.0783 135.397 92.1189C132.587 85.1594 123.191 82.3439 114.411 85.8301C105.63 89.3164 100.79 97.7843 103.599 104.744C106.409 111.703 115.805 114.519 124.586 111.033Z" fill="white"/>
<path d="M116.962 113.149C110.647 113.149 105.086 110.146 102.993 104.968C100.055 97.6912 105.069 88.8286 114.167 85.2134C123.268 81.5982 133.061 84.5814 136.002 91.8611C138.941 99.1378 133.927 108 124.829 111.613C122.204 112.656 119.52 113.149 116.962 113.149ZM122.054 84.967C119.651 84.967 117.128 85.4337 114.652 86.4136C106.218 89.7621 101.531 97.8709 104.204 104.487C106.876 111.102 115.909 113.761 124.343 110.412C132.778 107.064 137.464 98.9552 134.792 92.3394C132.903 87.6631 127.84 84.9641 122.054 84.9641V84.967Z" fill="black"/>
<path d="M125.278 112.539C133.122 109.424 137.479 101.942 135.01 95.8273C132.541 89.7121 124.181 87.2794 116.337 90.3938C108.493 93.5081 104.136 100.99 106.605 107.105C109.074 113.22 117.434 115.653 125.278 112.539Z" fill="black"/>
</svg>
