<svg width="394" height="396" viewBox="0 0 394 396" fill="none" xmlns="http://www.w3.org/2000/svg">
<path d="M295.352 71.7973C348.591 63.4034 387.387 93.8556 392.715 189.315C396.682 260.36 359.324 330.479 299.626 363.253C220.306 406.801 102.057 393.266 63.1082 322.502C39.8667 280.278 43.0564 214.394 75.3861 187.925C107.796 161.394 143.956 206.662 203.024 181.46C268.701 153.44 252.416 78.5666 295.352 71.7973Z" fill="white"/>
<path d="M198.53 388.935C179.188 388.935 159.991 386.394 141.947 381.193C105.113 370.579 77.6282 350.406 62.4642 322.852C51.057 302.127 45.6654 275.298 47.6773 249.25C49.7492 222.397 59.6783 199.839 74.9224 187.363C90.857 174.317 107.746 178.334 127.304 182.989C148.453 188.021 172.426 193.725 202.74 180.792C237.762 165.85 249.119 137.903 259.139 113.247C267.637 92.3337 274.977 74.2754 295.245 71.0794C319.384 67.2745 339.479 71.6319 354.974 84.0291C377.625 102.154 390.573 137.565 393.459 189.278C397.453 260.836 359.892 331.011 299.99 363.899C270.015 380.356 234.052 388.935 198.536 388.938L198.53 388.935ZM100.082 180.024C91.5877 180.024 83.5737 182.175 75.8566 188.491C60.9228 200.716 51.1872 222.903 49.1453 249.362C47.1568 275.136 52.4817 301.668 63.7587 322.151C78.7325 349.354 105.911 369.285 142.358 379.786C193.178 394.43 253.303 387.849 299.269 362.615C358.684 329.992 395.941 260.367 391.978 189.358C389.115 138.075 376.35 103.02 354.04 85.1673C338.882 73.0413 319.174 68.7865 295.472 72.5252C276.028 75.5923 268.834 93.2932 260.503 113.793C250.377 138.713 238.9 166.955 203.317 182.138C172.549 195.267 148.327 189.5 126.954 184.415C117.408 182.145 108.51 180.028 100.086 180.028L100.082 180.024Z" fill="black"/>
<path d="M294.258 274.649C293.965 274.649 293.688 274.474 293.571 274.186C285.877 255.056 259.993 251.317 259.733 251.281C259.329 251.225 259.046 250.857 259.102 250.454C259.156 250.053 259.529 249.772 259.933 249.828C260.203 249.865 286.931 253.713 294.942 273.644C295.092 274.021 294.909 274.444 294.528 274.596C294.438 274.633 294.345 274.649 294.255 274.649H294.258Z" fill="black"/>
<path d="M257.881 286.895C257.854 286.895 257.831 286.895 257.804 286.891C257.397 286.852 257.104 286.491 257.144 286.087C259.062 267.506 248.482 255.298 248.376 255.175C248.105 254.871 248.139 254.408 248.446 254.14C248.753 253.872 249.22 253.902 249.49 254.209C249.6 254.335 260.6 267.027 258.615 286.236C258.575 286.613 258.255 286.895 257.881 286.895Z" fill="black"/>
<path d="M149.204 357.096C147.533 355.419 137.867 325.608 137.867 325.608L118.773 339.121L139.709 367.022L149.204 357.099V357.096Z" fill="#FFC3C3"/>
<path d="M139.709 367.753C139.709 367.753 139.679 367.753 139.665 367.753C139.449 367.74 139.248 367.634 139.115 367.459L118.179 339.557C118.062 339.399 118.012 339.2 118.042 339.005C118.072 338.81 118.182 338.638 118.343 338.522L137.437 325.01C137.63 324.874 137.874 324.838 138.097 324.91C138.321 324.983 138.498 325.158 138.568 325.38C142.261 336.772 148.557 355.313 149.728 356.58C149.992 356.865 150.005 357.318 149.738 357.599L140.243 367.522C140.103 367.667 139.909 367.75 139.706 367.75L139.709 367.753ZM119.817 339.283L139.779 365.884L148.277 357.004C146.081 353.003 139.489 332.97 137.477 326.786L119.817 339.279V339.283Z" fill="black"/>
<path d="M114.793 394.791L127.491 394.715C135.892 394.665 143.706 390.434 148.29 383.449L160.845 363.733C164.315 358.284 162.373 351.068 156.635 348.044C151.393 345.281 145.901 342.592 144.617 342.714C142.004 342.962 140.95 355.217 140.95 355.217L129.636 355.651C129.636 355.651 124.048 378.698 119.13 381.319C115.547 383.228 113.044 386.03 111.363 388.587C109.601 391.267 111.566 394.811 114.793 394.794V394.791Z" fill="#FEDF53"/>
<path d="M116.07 390.606C115.71 390.606 115.396 390.345 115.34 389.981C115.28 389.58 115.557 389.206 115.96 389.147L133.33 386.553C137.02 386 140.239 383.863 142.154 380.687L157.502 355.26C157.712 354.913 158.166 354.801 158.516 355.009C158.866 355.217 158.98 355.667 158.77 356.015L143.422 381.441C141.277 384.995 137.677 387.387 133.546 388.002L116.177 390.596C116.14 390.603 116.1 390.606 116.067 390.606H116.07Z" fill="black"/>
<path d="M137.51 371.485C137.447 371.485 137.38 371.475 137.317 371.459L127.638 368.845C127.244 368.739 127.01 368.336 127.117 367.945C127.224 367.555 127.631 367.323 128.025 367.429L137.704 370.043C138.097 370.149 138.331 370.552 138.224 370.943C138.134 371.27 137.837 371.482 137.51 371.482V371.485Z" fill="black"/>
<path d="M132.469 376.412C132.409 376.412 132.352 376.405 132.292 376.392L125.803 374.817C125.406 374.721 125.162 374.324 125.259 373.93C125.356 373.537 125.763 373.298 126.153 373.391L132.642 374.966C133.039 375.062 133.283 375.459 133.186 375.853C133.103 376.187 132.803 376.412 132.469 376.412Z" fill="black"/>
<path d="M84.0477 351.409L61.8773 373.5L50.1265 369.219L70.562 340.957L84.0477 351.409Z" fill="#FFC3C3"/>
<path d="M61.8773 374.231C61.7905 374.231 61.7071 374.218 61.6237 374.185L49.8695 369.904C49.6527 369.824 49.4858 369.649 49.4191 369.431C49.3524 369.212 49.3891 368.974 49.5259 368.789L69.9647 340.527C70.0815 340.365 70.2617 340.255 70.4585 340.229C70.662 340.199 70.8589 340.255 71.019 340.378L84.5048 350.83C84.6716 350.959 84.775 351.154 84.7884 351.362C84.8017 351.571 84.725 351.776 84.5748 351.925L62.4044 374.013C62.2643 374.155 62.0741 374.228 61.8806 374.228L61.8773 374.231ZM51.2908 368.861L61.6871 372.646L82.9367 351.475L70.7154 342.002L51.2942 368.858L51.2908 368.861Z" fill="black"/>
<path d="M68.8835 370.043C68.8835 370.043 69.9545 379.439 68.1362 387.744C67.1686 392.171 63.1449 395.281 58.5807 395.281H4.1706C0.280346 395.281 -1.48128 390.467 1.49813 387.989C11.1737 379.952 28.9701 367.677 50.8503 364.074L56.9526 372.544L68.8802 370.04L68.8835 370.043Z" fill="#FEDF53"/>
<path d="M63.1449 388.597H6.75632C6.34928 388.597 6.01562 388.27 6.01562 387.863C6.01562 387.456 6.34594 387.128 6.75632 387.128H63.1449C63.552 387.128 63.8856 387.456 63.8856 387.863C63.8856 388.27 63.5553 388.597 63.1449 388.597Z" fill="black"/>
<path d="M38.2184 378.665C37.9281 378.665 37.6512 378.493 37.5344 378.212L34.5483 371.032C34.3915 370.659 34.5717 370.228 34.9487 370.076C35.3257 369.924 35.7595 370.099 35.9129 370.473L38.899 377.653C39.0558 378.027 38.8757 378.457 38.4986 378.609C38.4086 378.645 38.3118 378.665 38.2184 378.665Z" fill="black"/>
<path d="M28.4063 380.551C28.096 380.551 27.8057 380.356 27.7056 380.048L25.547 373.57C25.4169 373.186 25.6304 372.772 26.0174 372.643C26.4044 372.514 26.8215 372.726 26.9516 373.11L29.1103 379.588C29.237 379.972 29.0268 380.385 28.6398 380.514C28.5631 380.541 28.483 380.551 28.4096 380.551H28.4063Z" fill="black"/>
<path d="M201.399 196.835C201.399 196.835 100.076 185.139 69.9481 211.003C39.8203 236.866 117.509 348.084 117.509 348.084L142.078 330.015L118.773 251.407L212.436 225.031L201.399 196.835Z" fill="black"/>
<path d="M257.16 248.026C242.444 252.658 216.109 258.646 179.302 258.15C168.846 258.008 159.19 263.738 154.439 272.979C143.536 294.18 119.941 332.355 81.5019 357.1L63.145 347.29L109.998 242.699C114.275 233.15 122.276 225.726 132.169 222.129L225.027 188.362C225.027 188.362 253.821 180.382 267.937 205.871C270.459 210.424 275.14 202.284 276.255 205.957C280.078 218.549 269.799 244.049 257.157 248.026H257.16Z" fill="black"/>
<path d="M88.8251 290.693C88.725 290.693 88.6216 290.673 88.5248 290.63C88.1511 290.465 87.9843 290.031 88.1511 289.664L109.324 242.401C113.658 232.727 121.892 225.087 131.915 221.441L176.386 205.269C176.773 205.13 177.193 205.325 177.333 205.706C177.473 206.086 177.277 206.506 176.893 206.645L132.422 222.818C122.773 226.328 114.846 233.68 110.672 242.997L89.499 290.26C89.3756 290.534 89.1053 290.696 88.8217 290.696L88.8251 290.693Z" fill="white"/>
<path d="M113.548 331.326C113.365 331.326 113.178 331.256 113.034 331.121C112.741 330.839 112.731 330.376 113.014 330.085C117.245 325.724 121.405 321.036 125.386 316.159C125.643 315.845 126.106 315.795 126.423 316.05C126.74 316.305 126.79 316.765 126.533 317.082C122.526 321.992 118.336 326.71 114.079 331.104C113.935 331.253 113.742 331.329 113.545 331.329L113.548 331.326Z" fill="white"/>
<path d="M125.959 317.354C125.796 317.354 125.632 317.301 125.496 317.192C125.179 316.937 125.129 316.477 125.386 316.159C127.351 313.751 129.299 311.263 131.178 308.758C131.421 308.434 131.885 308.364 132.212 308.609C132.539 308.851 132.605 309.311 132.362 309.635C130.47 312.153 128.512 314.661 126.533 317.082C126.386 317.261 126.173 317.354 125.959 317.354Z" fill="white"/>
<path d="M178.378 115.679C178.378 115.679 169.466 195.925 109.625 201.176L178.378 202.145C178.378 202.145 203.835 150.988 204.869 131.07C205.903 111.153 178.378 115.679 178.378 115.679Z" fill="#FFC3C3"/>
<path d="M178.378 202.876H178.368L109.614 201.907C109.221 201.9 108.901 201.593 108.887 201.202C108.874 200.812 109.167 200.481 109.561 200.445C140.123 197.765 156.998 174.876 165.773 156.149C175.318 135.775 177.624 115.798 177.644 115.599C177.681 115.272 177.931 115.01 178.258 114.957C178.878 114.855 193.565 112.532 201.212 119.302C204.388 122.114 205.867 126.088 205.606 131.107C204.575 150.948 180.083 200.372 179.038 202.466C178.915 202.718 178.658 202.873 178.375 202.873L178.378 202.876ZM118.299 200.564L177.917 201.404C180.336 196.487 203.164 149.628 204.128 131.031C204.365 126.475 203.051 122.898 200.228 120.393C193.899 114.785 181.748 115.976 179.038 116.324C178.588 119.748 175.852 138.104 167.107 156.765C155.81 180.871 139.052 195.856 118.296 200.564H118.299Z" fill="black"/>
<path d="M263.546 64.6801C251.936 61.9737 247.094 61.9373 204.896 63.4526C194.583 63.8232 183.105 79.8334 181.894 89.9974C185.174 99.7478 199.507 144.705 173.096 182.313C169.349 187.65 164.255 193.503 157.258 199.111C161.189 202.264 167.294 206.363 175.495 208.779C189.111 212.789 195.957 208.454 206.927 208.779C235.951 209.636 246.594 241.692 265.338 237.666C270.343 236.591 276.979 232.72 283.198 219.733C286.724 208.964 289.86 196.319 291.605 182.029C296.34 143.289 288.593 111.033 281.673 90.7881C279.618 84.396 277.232 67.8696 263.546 64.6801Z" fill="#FEDF53"/>
<path d="M262.058 238.755C254.354 238.755 247.955 233.09 240.692 226.658C231.847 218.827 221.824 209.953 206.907 209.513C203.017 209.398 199.584 209.887 196.268 210.364C190.309 211.214 184.146 212.094 175.285 209.484C168.712 207.548 162.49 204.249 156.795 199.684C156.621 199.545 156.521 199.336 156.521 199.114C156.521 198.893 156.621 198.684 156.795 198.545C162.88 193.665 168.158 188.064 172.489 181.897C196.615 147.544 186.612 106.349 181.19 90.2324C181.157 90.1299 181.144 90.0207 181.157 89.9148C182.345 79.9494 193.919 63.1153 204.866 62.7249C247.758 61.1831 252.159 61.2757 263.713 63.9689C275.931 66.8176 279.404 79.7111 281.479 87.4135C281.81 88.6377 282.093 89.6964 282.374 90.5666C292.713 120.804 296.066 151.61 292.336 182.118C290.775 194.889 287.935 207.621 283.895 219.962C283.885 219.992 283.875 220.021 283.858 220.051C278.76 230.695 272.581 236.862 265.488 238.387C264.31 238.639 263.166 238.758 262.048 238.758L262.058 238.755ZM205.743 208.028C206.14 208.028 206.544 208.034 206.951 208.044C222.405 208.501 232.641 217.566 241.676 225.563C249.693 232.66 256.613 238.788 265.184 236.948C271.797 235.529 277.626 229.643 282.51 219.459C286.514 207.224 289.327 194.598 290.875 181.936C294.578 151.646 291.245 121.058 280.976 91.0199C280.682 90.1034 280.392 89.0314 280.058 87.7874C278.066 80.3993 274.733 68.0385 263.379 65.3883C252.006 62.7381 247.635 62.6455 204.926 64.1807C194.713 64.5479 183.886 80.4026 182.652 89.9181C188.153 106.352 198.136 147.941 173.707 182.727C169.466 188.765 164.335 194.267 158.439 199.098C163.788 203.254 169.596 206.271 175.709 208.071C184.263 210.589 189.992 209.771 196.061 208.905C199.097 208.471 202.23 208.025 205.75 208.025L205.743 208.028Z" fill="black"/>
<path d="M170.514 124.672C170.514 124.672 181.908 68.7897 201.573 64.1577L192.488 137.155L170.514 124.672Z" fill="#FEDF53"/>
<path d="M192.488 137.886C192.361 137.886 192.234 137.853 192.121 137.79L170.147 125.307C169.87 125.151 169.727 124.833 169.79 124.526C170.261 122.226 181.508 68.131 201.403 63.4427C201.803 63.3468 202.197 63.5916 202.293 63.9853C202.387 64.379 202.143 64.7728 201.746 64.8687C183.753 69.107 172.563 118.666 171.348 124.301L191.894 135.97L193.389 123.957C193.439 123.556 193.812 123.272 194.213 123.318C194.62 123.368 194.907 123.735 194.857 124.135L193.225 137.241C193.195 137.485 193.045 137.697 192.821 137.806C192.718 137.859 192.605 137.882 192.491 137.882L192.488 137.886Z" fill="black"/>
<path d="M228.924 37.9369L227.523 57.2623C227.212 59.7768 225.387 61.848 222.915 62.4866L216.069 64.2567L220.51 67.6116C230.355 75.0459 243.995 76.5712 253.857 69.1534L260.887 64.0879L252.382 61.9804C249.94 61.4377 248.062 57.9869 247.615 55.5452L243.858 29.9731L228.921 37.9402L228.924 37.9369Z" fill="#FFC3C3"/>
<path d="M238.89 74.7846C232.497 74.7846 225.861 72.5712 220.066 68.1939L215.625 64.839C215.402 64.6703 215.292 64.3857 215.348 64.1111C215.405 63.8365 215.612 63.6181 215.885 63.5454L222.732 61.7753C224.924 61.2095 226.519 59.403 226.792 57.173L228.19 37.884C228.207 37.6326 228.354 37.4109 228.577 37.2918L243.514 29.3247C243.728 29.2122 243.981 29.2089 244.195 29.3148C244.412 29.4207 244.558 29.6258 244.595 29.864L248.352 55.436C248.739 57.5601 250.414 60.7893 252.549 61.2624L261.07 63.3733C261.347 63.4428 261.561 63.6645 261.618 63.9457C261.674 64.2269 261.557 64.5115 261.327 64.6769L254.301 69.7423C249.82 73.1138 244.452 74.7813 238.897 74.7813L238.89 74.7846ZM217.727 64.5876L220.96 67.0293C231.26 74.8045 244.302 75.4232 253.413 68.5678L259.172 64.4155L252.206 62.6884C249.31 62.0466 247.351 58.1987 246.891 55.6709L243.281 31.1114L229.631 38.3902L228.26 57.3153C227.91 60.1838 225.885 62.4767 223.102 63.1946L217.727 64.5843V64.5876Z" fill="#FFC3C3"/>
<path d="M206.78 11.0384C211.465 8.58017 207.694 16.2362 223.102 3.01182C229.238 -2.25544 229.458 7.57766 231.056 6.21453C236.948 1.18548 236.741 1.35092 240.461 0.709052C242.924 0.285554 246.217 3.65369 247.194 6.83985C248.485 11.0484 245.666 13.5662 246.627 23.257C247.304 30.0628 249.463 33.4077 247.484 35.34C245.486 37.2953 242.23 34.9032 239.881 36.8751C236.845 39.4261 240.311 45.1036 238.066 49.1268C236.651 51.6645 232.007 54.6488 222.238 54.4172C220.653 54.3809 219.315 53.2229 219.055 51.6678C218.725 49.6761 218.321 47.1549 218.137 44.7165C217.263 33.0968 219.786 29.2356 217.3 27.2505C213.493 24.2066 207.024 29.8742 204.278 27.2042C201.425 24.4283 200.361 14.4 206.774 11.0351L206.78 11.0384Z" fill="#393939"/>
<path d="M230.089 17.5564L229.895 20.7293C229.805 22.2248 229.815 23.7236 229.932 25.2191C230.152 28.0214 230.492 32.8454 230.476 35.5584C230.452 39.5452 218.021 40.326 218.021 40.326L216.443 38.5857L214.985 38.6453C214.701 38.6585 214.414 38.6122 214.164 38.4799C213.537 38.1556 213.223 37.4873 213.333 36.8454C213.92 33.3218 214.951 25.5466 213.81 19.5018C213.81 19.5018 220.723 13.9368 230.089 17.5564Z" fill="#FFC3C3"/>
<path d="M218.021 41.0573C217.811 41.0573 217.61 40.9679 217.47 40.8157L216.126 39.3335L215.015 39.3798C214.581 39.3997 214.167 39.3136 213.82 39.135C212.926 38.6718 212.439 37.7057 212.599 36.7296C213.123 33.5997 214.214 25.6657 213.08 19.6408C213.029 19.3761 213.13 19.1081 213.34 18.9361C213.633 18.6979 220.697 13.1461 230.352 16.8748C230.652 16.9906 230.839 17.2851 230.822 17.6027L230.629 20.7757C230.539 22.2347 230.552 23.7104 230.666 25.1628C230.876 27.8659 231.226 32.809 231.21 35.565C231.183 40.0117 220.253 40.9216 218.064 41.0573C218.047 41.0573 218.031 41.0573 218.017 41.0573H218.021ZM216.443 37.8512C216.653 37.8512 216.853 37.9406 216.993 38.0928L218.328 39.5684C223.175 39.2144 229.718 37.7751 229.735 35.5518C229.752 32.8487 229.405 27.952 229.194 25.272C229.074 23.7501 229.061 22.2083 229.158 20.683L229.318 18.0494C221.764 15.3761 216.056 18.8137 214.618 19.8162C215.625 25.7683 214.708 33.077 214.06 36.9612C214 37.3119 214.181 37.6593 214.504 37.8281C214.621 37.8876 214.774 37.9174 214.951 37.9108L216.409 37.8512C216.409 37.8512 216.429 37.8512 216.439 37.8512H216.443Z" fill="#383838"/>
<path d="M232.274 27.3366C232.274 27.3366 232.731 19.7037 236.184 20.6665C239.634 21.6326 238.917 30.0199 232.274 27.3366Z" fill="white"/>
<path d="M198.443 208.829L62.5946 208.829C59.3483 208.829 56.7125 206.215 56.7125 202.996V200.971L204.325 200.971V202.996C204.325 206.215 201.689 208.829 198.443 208.829Z" fill="white"/>
<path d="M198.443 209.56H62.5945C58.9445 209.56 55.9751 206.615 55.9751 202.992V200.967C55.9751 200.564 56.3054 200.233 56.7158 200.233H204.328C204.735 200.233 205.069 200.56 205.069 200.967V202.992C205.069 206.612 202.1 209.56 198.446 209.56H198.443ZM57.4531 201.702V202.996C57.4531 205.808 59.7619 208.097 62.5945 208.097H198.443C201.279 208.097 203.588 205.808 203.588 202.996V201.702H57.4531Z" fill="black"/>
<path d="M56.7123 201.11H141.177L114.342 122.776C112.737 120.324 109.938 118.838 106.932 118.838H35.5328C32.2932 118.838 30.2079 121.955 31.2655 124.708C31.6859 125.803 32.1397 126.885 32.5067 127.997L56.7157 201.11H56.7123Z" fill="white"/>
<path d="M141.177 201.844H56.7124C56.3921 201.844 56.1085 201.642 56.0117 201.341L31.8028 128.225C31.5459 127.448 31.2356 126.663 30.9386 125.906C30.8152 125.595 30.6917 125.28 30.5716 124.969C29.9878 123.447 30.2046 121.724 31.1555 120.357C32.1498 118.928 33.7446 118.107 35.5295 118.107H106.929C110.205 118.107 113.208 119.705 114.959 122.379C114.993 122.428 115.019 122.485 115.039 122.541L141.874 200.875C141.951 201.1 141.914 201.345 141.774 201.537C141.634 201.728 141.41 201.844 141.174 201.844H141.177ZM57.2495 200.379H140.146L113.672 123.1C112.187 120.89 109.671 119.57 106.929 119.57H35.5295C34.235 119.57 33.0839 120.159 32.3733 121.184C31.6993 122.154 31.5425 123.375 31.9529 124.443C32.0697 124.751 32.1931 125.059 32.3132 125.37C32.6202 126.147 32.9371 126.951 33.2074 127.765L57.2495 200.375V200.379Z" fill="black"/>
<path d="M88.0582 158.919C89.0658 162.231 87.5277 165.619 84.6217 166.489C81.719 167.359 78.5494 165.377 77.5418 162.065C76.5342 158.754 78.0723 155.366 80.9783 154.495C83.881 153.625 87.0506 155.607 88.0582 158.919Z" fill="black"/>
<path d="M290.658 139.048C290.658 139.048 286.514 191.088 274.79 210.794C260.787 234.325 190.149 202.632 190.149 202.632L181.934 198.02C176.376 194.9 169.757 194.232 163.678 196.177L150.409 200.422C150.409 200.422 161.369 187.389 170.687 182.407C175.058 180.071 180.723 182.281 185.508 185.285C193.742 190.456 203.424 192.882 213.167 192.594L241.266 191.767C245.983 191.628 249.85 188.008 250.261 183.343L254.495 124.808L290.658 139.048Z" fill="#FFC3C3"/>
<path d="M253.38 220.257C228.04 220.257 191.94 204.24 189.845 203.3L181.571 198.658C176.209 195.647 169.77 194.996 163.905 196.875L150.632 201.12C150.322 201.219 149.978 201.103 149.792 200.832C149.608 200.561 149.625 200.203 149.838 199.952C150.289 199.416 160.995 186.754 170.334 181.761C174.257 179.664 179.496 180.643 185.901 184.666C193.859 189.665 203.271 192.147 213.143 191.862L241.242 191.035C245.586 190.906 249.143 187.574 249.523 183.283L253.757 124.758C253.774 124.526 253.901 124.314 254.101 124.189C254.301 124.063 254.548 124.043 254.765 124.129L290.928 138.369C291.228 138.488 291.419 138.786 291.392 139.107C291.222 141.238 287.101 191.545 275.424 211.168C271.457 217.835 263.229 220.257 253.377 220.257H253.38ZM170.674 194.354C174.711 194.354 178.728 195.376 182.298 197.381L190.512 201.993C191.153 202.278 260.644 233.12 274.153 210.42C285.023 192.154 289.39 145.102 289.874 139.527L255.155 125.856L250.995 183.396C250.551 188.441 246.377 192.349 241.286 192.498L213.187 193.325C203.014 193.626 193.318 191.058 185.111 185.904C181.04 183.346 175.292 180.775 171.038 183.052C164.115 186.751 156.157 195.092 152.714 198.913L163.451 195.479C165.803 194.724 168.242 194.354 170.674 194.354Z" fill="black"/>
<path d="M297.224 142.727C297.224 142.727 301.648 109.191 296.77 97.3826C285.39 69.8353 267.994 65.9742 265.211 65.1504L249.173 133.244L297.224 142.723V142.727Z" fill="#FEDF53"/>
<path d="M297.224 143.461C297.178 143.461 297.128 143.458 297.081 143.448L249.03 133.969C248.833 133.929 248.663 133.813 248.553 133.648C248.446 133.483 248.409 133.277 248.456 133.086L251.729 119.183C251.822 118.789 252.219 118.544 252.616 118.637C253.014 118.73 253.26 119.123 253.167 119.517L250.067 132.682L296.59 141.86C297.208 136.771 300.431 108.172 296.087 97.6672C291.165 85.7497 281.847 70.5798 265.408 65.9776L264.998 65.8618C264.608 65.746 264.384 65.339 264.501 64.9519C264.618 64.5648 265.025 64.3432 265.422 64.459L265.812 64.5681C279.274 68.3366 290.218 79.5891 297.454 97.1113C302.352 108.966 298.138 141.453 297.958 142.829C297.932 143.031 297.821 143.213 297.658 143.329C297.531 143.418 297.381 143.465 297.228 143.465L297.224 143.461Z" fill="black"/>
</svg>
