<svg width="23" height="23" viewBox="0 0 23 23" fill="none" xmlns="http://www.w3.org/2000/svg">
<path d="M12.9648 22.065C12.7821 22.065 12.6213 21.9289 12.5994 21.7498C12.5775 21.5492 12.7163 21.3701 12.921 21.3414C13.871 21.2268 14.7992 20.9904 15.6835 20.6393C15.8735 20.5605 16.0854 20.6537 16.1658 20.8399C16.2462 21.0262 16.1512 21.234 15.9612 21.3128C15.0184 21.6853 14.0245 21.9433 13.0087 22.065C12.9941 22.065 12.9794 22.065 12.9648 22.065ZM10.0123 22.0579C10.0123 22.0579 9.98303 22.0579 9.96111 22.0579C8.94527 21.9289 7.95868 21.671 7.01592 21.2913C6.8259 21.2125 6.73818 21.0047 6.81127 20.8184C6.89166 20.6322 7.10362 20.5462 7.29363 20.6178C8.17062 20.9761 9.10605 21.2125 10.0561 21.3414C10.2607 21.3701 10.3996 21.5492 10.3777 21.7498C10.3558 21.9289 10.195 22.065 10.0123 22.065V22.0579ZM18.3875 19.9086C18.2779 19.9086 18.1682 19.8584 18.0952 19.7653C17.9709 19.6077 18.0002 19.3784 18.1683 19.2566C18.9356 18.6906 19.6153 18.0243 20.1926 17.2864C20.3169 17.1288 20.5507 17.1001 20.7115 17.2219C20.8723 17.3437 20.9016 17.573 20.7773 17.7306C20.1561 18.5187 19.4326 19.2279 18.6141 19.8369C18.5483 19.8871 18.4679 19.9086 18.3875 19.9086ZM4.60421 19.8727C4.52382 19.8727 4.44344 19.8513 4.37766 19.8011C3.56645 19.1921 2.84293 18.4757 2.22904 17.6804C2.1048 17.5228 2.14133 17.2936 2.30211 17.1718C2.46289 17.05 2.69677 17.0858 2.82101 17.2434C3.39836 17.9885 4.07071 18.6548 4.83077 19.2279C4.99155 19.3497 5.02076 19.579 4.89652 19.7366C4.82343 19.8298 4.71384 19.8799 4.60421 19.8799V19.8727ZM21.9393 15.3592C21.8954 15.3592 21.8443 15.352 21.8004 15.3305C21.6104 15.2589 21.5154 15.0439 21.5958 14.8577C21.9466 13.9908 22.1732 13.0737 22.2609 12.1424C22.2828 11.9417 22.4582 11.7985 22.6628 11.8128C22.8674 11.8343 23.0136 12.0062 22.999 12.2068C22.904 13.2027 22.6628 14.1842 22.2828 15.1156C22.2243 15.2589 22.0855 15.3448 21.9393 15.3448V15.3592ZM1.08896 15.3019C0.942798 15.3019 0.803919 15.2159 0.745453 15.0726C0.372734 14.1412 0.138862 13.1597 0.0511629 12.1567C0.0365465 11.9561 0.182727 11.7841 0.387357 11.7626C0.584679 11.7411 0.767376 11.8916 0.7893 12.0922C0.876999 13.0236 1.08895 13.9406 1.43974 14.8075C1.51282 14.9938 1.41783 15.2015 1.22782 15.2804C1.18397 15.2947 1.14008 15.3019 1.09623 15.3019H1.08896ZM0.372726 11.562C0.168096 11.562 0 11.3973 0 11.1966C0 10.1865 0.146177 9.19062 0.423889 8.23059C0.482355 8.03715 0.686989 7.92968 0.884311 7.97983C1.08163 8.03715 1.19124 8.23775 1.14008 8.43119C0.876985 9.32674 0.745453 10.2581 0.745453 11.1966C0.745453 11.3973 0.577357 11.562 0.372726 11.562ZM22.4947 9.66347C22.3193 9.66347 22.1659 9.54167 22.1293 9.36972C21.9539 8.45268 21.647 7.5643 21.2158 6.72606C21.1208 6.54695 21.2011 6.33202 21.3765 6.23888C21.5593 6.14575 21.7785 6.22455 21.8735 6.3965C22.334 7.29205 22.6628 8.25208 22.8528 9.2336C22.8894 9.42704 22.7578 9.62048 22.5605 9.6563C22.5385 9.6563 22.5166 9.6563 22.4947 9.6563V9.66347ZM1.98786 6.05977C1.92209 6.05977 1.84899 6.03828 1.79052 6.00246C1.61513 5.89499 1.56399 5.67289 1.67361 5.50095C2.21442 4.65555 2.87215 3.88179 3.63221 3.20834C3.78568 3.07221 4.01952 3.08654 4.15838 3.22983C4.29724 3.38028 4.28264 3.60954 4.13648 3.74567C3.42758 4.3833 2.81369 5.09974 2.30942 5.88783C2.23634 5.99529 2.11941 6.05977 1.99517 6.05977H1.98786ZM19.8784 4.54092C19.7761 4.54092 19.6811 4.49793 19.608 4.42629C18.9648 3.7385 18.234 3.12953 17.4228 2.62802C17.2474 2.52056 17.1963 2.29846 17.3059 2.12651C17.4155 1.95457 17.642 1.90442 17.8174 2.01188C18.6798 2.54921 19.4691 3.19401 20.1561 3.93194C20.2949 4.0824 20.2803 4.31166 20.1342 4.44778C20.0611 4.51226 19.9734 4.54092 19.8857 4.54092H19.8784ZM6.307 2.19099C6.17545 2.19099 6.04394 2.11935 5.97816 1.99755C5.88316 1.81844 5.95622 1.60351 6.13892 1.51037C7.04514 1.05185 8.00982 0.715125 9.01105 0.500193C9.21568 0.457207 9.40572 0.579001 9.44957 0.779605C9.49342 0.973044 9.36917 1.16648 9.16454 1.20947C8.22908 1.41007 7.32287 1.72531 6.47512 2.15517C6.42396 2.18383 6.36546 2.19816 6.307 2.19816V2.19099ZM14.938 1.46739C14.938 1.46739 14.865 1.46739 14.8284 1.45306C13.9222 1.17365 12.9721 1.01603 12.0147 0.973044C11.8101 0.965879 11.6493 0.793935 11.6639 0.593331C11.6712 0.392728 11.8394 0.235111 12.0513 0.24944C13.0744 0.292427 14.083 0.464372 15.055 0.758112C15.2523 0.815428 15.3619 1.0232 15.2961 1.20947C15.245 1.36709 15.0988 1.46739 14.9453 1.46739H14.938Z" fill="white"/>
</svg>
