<svg width="32" height="32" viewBox="0 0 32 32" fill="none" xmlns="http://www.w3.org/2000/svg">
<path d="M17.7401 31.0698C17.4901 31.0698 17.2701 30.8814 17.2401 30.6335C17.2101 30.3559 17.4001 30.1079 17.6801 30.0683C18.9801 29.9096 20.25 29.5824 21.46 29.0964C21.72 28.9874 22.01 29.1163 22.12 29.3741C22.23 29.6319 22.1 29.9195 21.84 30.0286C20.55 30.5443 19.19 30.9013 17.8 31.0698C17.78 31.0698 17.7601 31.0698 17.7401 31.0698ZM13.7 31.0599C13.7 31.0599 13.66 31.0599 13.63 31.0599C12.24 30.8814 10.89 30.5244 9.60004 29.9989C9.34004 29.8898 9.22001 29.6022 9.32001 29.3444C9.43001 29.0865 9.72004 28.9675 9.98004 29.0667C11.18 29.5625 12.46 29.8898 13.76 30.0683C14.04 30.1079 14.23 30.3559 14.2 30.6335C14.17 30.8814 13.95 31.0698 13.7 31.0698V31.0599ZM25.16 28.085C25.01 28.085 24.86 28.0155 24.76 27.8866C24.59 27.6685 24.63 27.3511 24.86 27.1825C25.91 26.3991 26.84 25.4769 27.63 24.4555C27.8 24.2373 28.12 24.1977 28.34 24.3662C28.56 24.5348 28.6001 24.8521 28.4301 25.0703C27.5801 26.1611 26.59 27.1429 25.47 27.9858C25.38 28.0552 25.27 28.085 25.16 28.085ZM6.30005 28.0354C6.19005 28.0354 6.08005 28.0056 5.99005 27.9362C4.88005 27.0933 3.89005 26.1016 3.05005 25.0009C2.88005 24.7827 2.93002 24.4654 3.15002 24.2968C3.37002 24.1282 3.69005 24.1778 3.86005 24.396C4.65005 25.4273 5.57005 26.3495 6.61005 27.1429C6.83005 27.3115 6.87001 27.6288 6.70001 27.847C6.60001 27.9759 6.45005 28.0453 6.30005 28.0453V28.0354ZM30.02 21.7879C29.96 21.7879 29.89 21.778 29.83 21.7482C29.57 21.6491 29.44 21.3516 29.55 21.0938C30.03 19.8938 30.34 18.6245 30.46 17.3354C30.49 17.0577 30.73 16.8594 31.01 16.8792C31.29 16.9089 31.49 17.1469 31.47 17.4246C31.34 18.803 31.0101 20.1616 30.4901 21.4508C30.4101 21.6491 30.22 21.7681 30.02 21.7681V21.7879ZM1.49005 21.7086C1.29005 21.7086 1.10002 21.5896 1.02002 21.3913C0.51002 20.1021 0.190007 18.7435 0.0700073 17.3552C0.0500073 17.0775 0.250029 16.8395 0.530029 16.8098C0.800029 16.78 1.05002 16.9883 1.08002 17.2659C1.20002 18.5551 1.49003 19.8244 1.97003 21.0243C2.07003 21.2822 1.94005 21.5697 1.68005 21.6788C1.62005 21.6987 1.56 21.7086 1.5 21.7086H1.49005ZM0.51001 16.5321C0.23001 16.5321 0 16.304 0 16.0264C0 14.6281 0.200017 13.2497 0.580017 11.9209C0.660017 11.6532 0.940022 11.5044 1.21002 11.5738C1.48002 11.6532 1.63 11.9308 1.56 12.1986C1.2 13.4381 1.02002 14.7273 1.02002 16.0264C1.02002 16.304 0.79001 16.5321 0.51001 16.5321ZM30.78 13.9042C30.54 13.9042 30.33 13.7356 30.28 13.4976C30.04 12.2283 29.62 10.9987 29.03 9.83842C28.9 9.5905 29.01 9.293 29.25 9.16409C29.5 9.03517 29.8001 9.14425 29.9301 9.38225C30.5601 10.6218 31.01 11.9507 31.27 13.3092C31.32 13.577 31.14 13.8447 30.87 13.8943C30.84 13.8943 30.81 13.8943 30.78 13.8943V13.9042ZM2.72003 8.91617C2.63003 8.91617 2.53001 8.88642 2.45001 8.83684C2.21001 8.68809 2.14004 8.38067 2.29004 8.14268C3.03004 6.97252 3.93003 5.90152 4.97003 4.96936C5.18003 4.78095 5.5 4.80078 5.69 4.99912C5.88 5.20736 5.86003 5.52469 5.66003 5.71311C4.69003 6.59569 3.85003 7.58735 3.16003 8.67817C3.06003 8.82692 2.90004 8.91617 2.73004 8.91617H2.72003ZM27.2 6.81385C27.06 6.81385 26.93 6.75435 26.83 6.65519C25.95 5.70319 24.95 4.86028 23.84 4.16612C23.6 4.01737 23.5301 3.70996 23.6801 3.47196C23.8301 3.23396 24.14 3.16454 24.38 3.31329C25.56 4.05704 26.64 4.94953 27.58 5.97094C27.77 6.17919 27.75 6.49652 27.55 6.68494C27.45 6.77419 27.33 6.81385 27.21 6.81385H27.2ZM8.63 3.56121C8.45 3.56121 8.27005 3.46204 8.18005 3.29346C8.05005 3.04554 8.15002 2.74805 8.40002 2.61913C9.64002 1.98447 10.96 1.51839 12.33 1.22089C12.61 1.16139 12.8701 1.32997 12.9301 1.60764C12.9901 1.87539 12.82 2.14314 12.54 2.20264C11.26 2.4803 10.02 2.91663 8.86005 3.51163C8.79005 3.55129 8.71 3.57112 8.63 3.57112V3.56121ZM20.44 2.55963C20.44 2.55963 20.34 2.55963 20.29 2.5398C19.05 2.15305 17.75 1.93489 16.44 1.87539C16.16 1.86547 15.94 1.62747 15.96 1.34981C15.97 1.07214 16.2001 0.853978 16.4901 0.873811C17.8901 0.933311 19.27 1.17131 20.6 1.57789C20.87 1.65722 21.0201 1.9448 20.9301 2.20264C20.8601 2.4208 20.66 2.55963 20.45 2.55963H20.44Z" fill="white"/>
</svg>
