<svg width="113" height="113" viewBox="0 0 113 113" fill="none" xmlns="http://www.w3.org/2000/svg">
<path d="M13.1808 82.157H5.11121C4.43875 82.157 3.73828 81.4902 3.73828 80.6705L3.80833 58.5394C3.80833 57.4002 4.87307 56.8306 5.54553 56.8306L13.4609 56.9278C14.1334 56.9278 14.9179 57.6086 14.9179 58.4282L14.8899 80.4066C14.8899 81.2401 14.1754 82.1709 13.1808 82.1709V82.157Z" fill="#FFD42E"/>
<path d="M73.7022 82.157H65.6327C64.9603 82.157 64.2598 81.4902 64.2598 80.6705L64.3298 58.5394C64.3298 57.4002 65.3946 56.8306 66.067 56.8306L73.9824 56.9278C74.6549 56.9278 75.4394 57.6086 75.4394 58.4282L75.4114 80.4066C75.4114 81.2401 74.6969 82.1709 73.7022 82.1709V82.157Z" fill="#FFD42E"/>
<path d="M77.4569 69.8203C77.597 62.999 78.2555 56.5944 78.0873 49.7731C78.0733 49.1479 78.0453 48.4949 77.7511 47.9809C77.3728 47.3141 72.4695 44.5494 69.3454 43.2435C67.6502 38.2977 62.999 27.8781 62.0464 26.5166C61.1638 25.2663 59.8749 24.2938 58.4739 24.2938C47.1542 24.2243 35.5822 24.2521 24.0103 24.2938C22.7495 24.2938 21.4186 24.3216 20.3398 25.0579C19.2471 25.7942 18.5746 27.1279 17.9582 28.406C15.6186 33.199 13.279 37.9781 10.8133 43.1323C8.52973 44.2854 6.24616 45.4385 3.97661 46.5916C3.31816 46.9251 2.65971 47.2585 2.14136 47.842C1.20271 48.9256 1.02059 50.5789 0.93653 52.0932C0.558271 58.206 0.684363 63.0129 1.16069 69.4591C0.950545 72.9045 9.03407 72.4738 12.9988 72.4738C33.5929 72.5294 52.758 72.585 73.3521 72.6266C74.3188 72.6266 75.3134 72.6266 76.182 72.1404C77.0506 71.6541 77.4429 70.5983 77.4569 69.7925V69.8203Z" fill="#161616"/>
<path d="M73.5343 73.3769C73.5343 73.3769 73.4082 73.3769 73.3522 73.3769L12.9989 73.2241C12.6066 73.2241 12.1863 73.2241 11.724 73.2241C8.03949 73.2518 2.98203 73.2935 1.16079 71.3902C0.656442 70.8623 0.418287 70.2232 0.446306 69.5008C-0.0720488 62.5683 -0.128092 57.8309 0.222147 52.0793C0.320215 50.4816 0.516335 48.6617 1.60908 47.4113C2.2115 46.7167 2.98203 46.3277 3.65449 45.9943L10.281 42.6461C12.7187 37.5753 15.0583 32.7684 17.3278 28.1282C17.9303 26.9056 18.6728 25.3774 19.9477 24.5022C21.2505 23.627 22.7776 23.627 24.0244 23.6131C35.162 23.5714 47.0422 23.5297 58.488 23.6131C60.0011 23.6131 61.5141 24.53 62.6349 26.1415C63.6716 27.6142 68.1687 37.742 69.9199 42.7434C72.6097 43.9104 77.8213 46.675 78.3816 47.6614C78.7739 48.356 78.7879 49.1757 78.8019 49.787C78.9 53.9548 78.6898 58.0393 78.4937 61.9848C78.3676 64.5411 78.2275 67.1946 78.1715 69.862C78.1575 70.8067 77.7092 72.1543 76.5464 72.8212C75.5657 73.3769 74.459 73.4047 73.5483 73.4047L73.5343 73.3769ZM12.8448 71.807H12.9989L73.3522 71.9598C74.2208 71.9598 75.1174 71.9598 75.8319 71.5569C76.4343 71.2096 76.7285 70.4038 76.7425 69.8064C76.7986 67.1113 76.9386 64.4577 77.0647 61.8876C77.2609 57.9698 77.471 53.9131 77.3729 49.8009C77.3729 49.3146 77.3449 48.7172 77.1348 48.3283C76.7005 47.8003 72.2595 45.2302 69.0653 43.8965C68.8831 43.8131 68.729 43.6603 68.673 43.4797C66.9638 38.4783 62.3687 28.2116 61.458 26.9334C60.6175 25.7248 59.4967 25.0023 58.474 25.0023C47.0282 24.9329 35.148 24.9607 24.0244 25.0023C22.9317 25.0023 21.6848 25.0023 20.7462 25.6414C19.7795 26.2944 19.1491 27.5725 18.6027 28.7117C16.3051 33.4213 13.9235 38.2838 11.4578 43.438C11.3878 43.5769 11.2757 43.6881 11.1356 43.7575L4.29894 47.2168C3.71054 47.5086 3.10812 47.8142 2.68783 48.3005C1.88928 49.2174 1.73519 50.7595 1.65113 52.1349C1.30089 57.8309 1.37092 62.5127 1.87527 69.4174C1.87527 69.4452 1.87527 69.4869 1.87527 69.5147C1.84725 69.862 1.95934 70.1399 2.1975 70.4038C3.59846 71.8626 8.68393 71.8209 11.724 71.807C12.1303 71.807 12.5086 71.807 12.8588 71.807H12.8448Z" fill="white"/>
<path d="M17.916 43.5632C19.9894 39.0898 22.6513 31.2543 24.5425 30.3512C25.7614 29.7677 41.9004 30.0178 50.7124 29.9761C52.5757 29.9761 54.6772 30.0595 55.938 31.5321C56.6105 32.3101 61.682 43.2298 61.682 43.2298L17.916 43.5632Z" fill="#FFD42E"/>
<path d="M17.9158 44.2716C17.6777 44.2716 17.4535 44.1466 17.3134 43.9521C17.1873 43.7437 17.1593 43.4936 17.2714 43.2713C17.8318 42.0487 18.4342 40.59 19.0786 39.0479C21.2781 33.727 22.7351 30.4344 24.2342 29.712C25.1448 29.2674 30.5244 29.2258 43.049 29.2674C45.8229 29.2674 48.4988 29.2813 50.7123 29.2674C52.7437 29.2674 55.0272 29.3925 56.4842 31.0596C57.1847 31.8654 61.4856 41.0901 62.3402 42.924C62.4383 43.1463 62.4243 43.3964 62.2982 43.5908C62.1721 43.7992 61.948 43.9104 61.7098 43.9243L17.9438 44.2577L17.9158 44.2716ZM36.9268 30.6567C31.1549 30.6567 25.6071 30.7123 24.8506 30.9901C23.7438 31.5181 21.8105 36.186 20.4095 39.5897C19.9332 40.7428 19.4709 41.8543 19.0366 42.8545L60.603 42.535C58.6697 38.3811 55.8678 32.5461 55.4195 31.9904C54.3688 30.7678 52.5335 30.6706 50.7403 30.6845C48.5268 30.6845 45.8509 30.6845 43.077 30.6845C41.1577 30.6845 39.0283 30.6845 36.9549 30.6845L36.9268 30.6567Z" fill="white"/>
<path d="M34.4383 62.0817H33.8311H33.83C30.4968 62.0817 27.1757 62.0817 23.8545 62.04C23.854 62.04 23.8536 62.04 23.8532 62.04L23.8563 61.79L34.4383 62.0817ZM34.4383 62.0817L34.4242 62.0677M34.4383 62.0817L34.4242 62.0677M34.4242 62.0677C41.4109 62.0646 48.4212 62.0091 55.3521 61.9011L34.4242 62.0677Z" fill="white" stroke="white" stroke-width="0.5"/>
<path d="M34.4383 56.2189H33.8311H33.83C30.4968 56.2189 27.1757 56.2189 23.8545 56.1772C23.854 56.1772 23.8536 56.1772 23.8532 56.1772L23.8563 55.9272L34.4383 56.2189ZM34.4383 56.2189L34.4242 56.2049M34.4383 56.2189L34.4242 56.2049M34.4242 56.2049C41.4109 56.2018 48.4212 56.1463 55.3521 56.0383L34.4242 56.2049Z" fill="white" stroke="white" stroke-width="0.5"/>
<path d="M68.4631 40.7705C68.1269 40.7705 67.8327 40.5344 67.7627 40.2009C67.6926 39.8258 67.9448 39.4507 68.3231 39.3813C71.0269 38.8672 73.7868 38.6589 76.5327 38.7839C76.9249 38.7978 77.2332 39.1312 77.2051 39.5202C77.1911 39.9092 76.8549 40.2287 76.4626 40.187C73.8288 40.0759 71.181 40.2704 68.5892 40.7705C68.5472 40.7705 68.4912 40.7705 68.4491 40.7705H68.4631Z" fill="white"/>
<path d="M11.7374 40.9785C11.6533 40.9785 11.5553 40.9647 11.4712 40.923C9.63596 40.1867 4.97075 39.9088 3.00941 40.1311C2.61714 40.1728 2.2669 39.8949 2.22487 39.5059C2.18285 39.1169 2.46305 38.7696 2.85532 38.7279C4.98478 38.4917 9.87413 38.7557 12.0036 39.6171C12.3678 39.7699 12.5359 40.1728 12.3958 40.534C12.2838 40.8118 12.0176 40.9785 11.7374 40.9785Z" fill="white"/>
<path d="M66.151 112.179C66.151 112.179 66.151 112.179 66.137 112.179C65.8428 112.179 65.5766 111.971 65.4786 111.693C63.8815 106.803 60.5332 102.413 56.0501 99.3005C50.4603 96.0635 37.7396 87.3528 33.5647 81.8096C33.3266 81.5039 33.3966 81.0594 33.7048 80.8232C34.013 80.587 34.4613 80.6565 34.6995 80.9621C38.5661 86.1024 50.9506 94.7159 56.7926 98.1058C56.8066 98.1058 56.8206 98.1197 56.8347 98.1336C61.0515 101.051 64.3298 105.052 66.193 109.539C68.6027 104.177 71.3486 102.385 75.9998 99.37C77.5268 98.3697 79.264 97.2444 81.2954 95.7996C81.9118 95.3689 82.5703 94.9243 83.2567 94.452C93.0634 87.7835 109.455 76.6415 111.43 20.612C98.275 17.4584 80.0766 11.6373 66.5993 1.71792C61.9762 5.31614 45.9772 14.4992 42.1106 16.6526C41.7743 16.8471 41.34 16.7221 41.1439 16.3887C40.9478 16.0552 41.0739 15.6246 41.4101 15.4301C45.3888 13.2072 62.2564 3.52397 66.109 0.286963C66.3612 0.0785715 66.7254 0.0646781 66.9916 0.259177C80.5109 10.387 99.1016 16.2358 112.313 19.3756C112.635 19.459 112.873 19.7507 112.859 20.0841C112.018 45.1883 108.292 63.7073 101.469 76.7109C95.7113 87.6723 88.9726 92.2569 84.0553 95.6051C83.3688 96.0635 82.7244 96.5081 82.1219 96.9388C80.0625 98.3975 78.3113 99.5367 76.7703 100.537C71.6007 103.899 69.2331 105.427 66.8095 111.721C66.6974 111.999 66.4452 112.179 66.151 112.179Z" fill="white"/>
<path d="M66.0949 98.3144C66.0949 98.3144 66.0949 98.3144 66.0809 98.3144C66.0108 98.3144 65.9408 98.2727 65.8987 98.2172C65.2403 97.3141 61.3316 94.6606 57.1988 91.8543C52.3795 88.5895 46.9297 84.8801 45.3887 83.088C45.3046 82.9907 45.3186 82.8379 45.4167 82.7545C45.5148 82.6712 45.6689 82.6851 45.753 82.7823C47.252 84.5328 52.6877 88.2144 57.479 91.4653C61.5417 94.216 65.0862 96.6195 66.1229 97.7309C68.5746 95.133 70.5779 93.9104 74.8369 91.2986C75.9016 90.6456 77.1064 89.9093 78.4934 89.034C97.3923 77.1974 101.903 58.2755 103.949 25.2941C87.4875 21.3625 75.3412 16.3333 66.7954 9.90099C64.862 11.6654 60.3229 14.0132 57.591 15.4303C56.7785 15.8471 56.1341 16.1944 55.7558 16.4028C55.6437 16.4723 55.5036 16.4306 55.4336 16.3194C55.3635 16.2083 55.4056 16.0694 55.5176 15.9999C55.8959 15.7776 56.5403 15.4442 57.3669 15.0274C60.1548 13.5826 64.834 11.1513 66.6132 9.42863C66.6973 9.34528 66.8234 9.34527 66.9214 9.41474C75.4393 15.8888 87.6556 20.9596 104.243 24.8913C104.355 24.919 104.425 25.0163 104.425 25.1274C103.585 38.7979 102.254 53.0379 98.1908 64.555C94.2681 75.6692 88.0899 83.5742 78.7455 89.4369C77.3586 90.3122 76.1538 91.0485 75.089 91.7015C70.7741 94.355 68.7987 95.5775 66.291 98.2588C66.249 98.3005 66.1789 98.3283 66.1229 98.3283L66.0949 98.3144Z" fill="white"/>
<path d="M6.48451 55.4413C6.10626 55.4413 5.79803 55.1496 5.77001 54.7745C5.756 54.3855 6.05022 54.052 6.44249 54.0382C9.58063 53.8992 12.7468 53.8159 15.8569 53.7881C16.2352 53.7881 16.5714 54.0937 16.5714 54.4827C16.5714 54.8717 16.2632 55.1913 15.8709 55.1913C12.7748 55.219 9.60864 55.3163 6.49852 55.4413C6.49852 55.4413 6.4845 55.4413 6.47049 55.4413H6.48451Z" fill="white"/>
<path d="M63.7697 55.3163C63.3914 55.3163 63.0832 55.0246 63.0552 54.6495C63.0412 54.2605 63.3354 53.927 63.7276 53.9132C66.8378 53.7742 70.018 53.6909 73.1421 53.6631C73.5344 53.6631 73.8426 53.9687 73.8566 54.3577C73.8566 54.7467 73.5484 55.0663 73.1561 55.0663C70.032 55.1079 66.8798 55.1913 63.7837 55.3163H63.7556H63.7697Z" fill="white"/>
</svg>
