<svg width="41" height="41" viewBox="0 0 41 41" fill="none" xmlns="http://www.w3.org/2000/svg">
<g clip-path="url(#clip0_210_264)">
<path d="M12.2966 23.6654C15.273 23.6654 17.6859 21.2525 17.6859 18.2761C17.6859 15.2996 15.273 12.8867 12.2966 12.8867C9.32012 12.8867 6.90723 15.2996 6.90723 18.2761C6.90723 21.2525 9.32012 23.6654 12.2966 23.6654Z" fill="white"/>
<path d="M3.03908 34.1332C2.15147 35.7021 1.67605 37.4708 1.65723 39.2733H22.943C22.9241 37.4708 22.4487 35.7021 21.5611 34.1332C19.6906 30.8263 16.0982 28.7265 12.3001 28.7183C8.50198 28.7265 4.90958 30.8263 3.03908 34.1332Z" fill="white"/>
<path d="M34.6921 14.8677C34.7046 11.5996 31.9382 8.88017 28.6708 8.94802C25.4033 9.0159 22.7525 11.8478 22.9004 15.1127C22.9956 17.2142 24.2809 19.1886 26.164 20.1262V23.0251C26.1684 23.1965 26.2396 23.3594 26.3624 23.479C26.4852 23.5987 26.6499 23.6656 26.8213 23.6656H30.7652C30.9365 23.6656 31.1015 23.5987 31.2241 23.479C31.347 23.3594 31.418 23.1965 31.4226 23.0251V20.0757C33.3649 19.1087 34.6654 17.0374 34.6921 14.8677Z" fill="#F5C900"/>
<path d="M12.2966 23.6654C15.273 23.6654 17.6859 21.2525 17.6859 18.2761C17.6859 15.2996 15.273 12.8867 12.2966 12.8867C9.32012 12.8867 6.90723 15.2996 6.90723 18.2761C6.90723 21.2525 9.32012 23.6654 12.2966 23.6654Z" stroke="#161616" stroke-width="3" stroke-linecap="round" stroke-linejoin="round"/>
<path d="M1.65723 39.2733C1.67605 37.4708 2.15147 35.7021 3.03908 34.1332C4.90958 30.8263 8.50198 28.7265 12.3001 28.7183C16.0982 28.7265 19.6906 30.8263 21.5611 34.1332C22.4487 35.7021 22.9241 37.4708 22.943 39.2733" stroke="#161616" stroke-width="3" stroke-linecap="round" stroke-linejoin="round"/>
<path d="M28.7969 4.21488V1.83643" stroke="#161616" stroke-width="3" stroke-linecap="round" stroke-linejoin="round"/>
<path d="M36.9102 7.13415L38.8568 5.76758" stroke="#161616" stroke-width="3" stroke-linecap="round" stroke-linejoin="round"/>
<path d="M20.6781 7.13415L18.7314 5.76758" stroke="#161616" stroke-width="3" stroke-linecap="round" stroke-linejoin="round"/>
<path d="M34.6923 14.8677C34.7044 11.5996 31.9384 8.88017 28.6708 8.94802C25.4033 9.0159 22.7525 11.8478 22.9004 15.1127C22.9957 17.2142 24.2809 19.1886 26.164 20.1262V23.0251C26.1684 23.1965 26.2396 23.3594 26.3624 23.479C26.4852 23.5987 26.6499 23.6656 26.8213 23.6656H30.7651C30.9367 23.6656 31.1013 23.5987 31.2242 23.479C31.3468 23.3594 31.4181 23.1965 31.4225 23.0251V20.0757C33.3648 19.1087 34.6653 17.0374 34.6923 14.8677Z" stroke="#161616" stroke-width="3" stroke-linecap="round" stroke-linejoin="round"/>
</g>
<defs>
<clipPath id="clip0_210_264">
<rect width="40.5786" height="40.5786" fill="white" transform="translate(0.139648 0.206055)"/>
</clipPath>
</defs>
</svg>
