<svg width="41" height="41" viewBox="0 0 41 41" fill="none" xmlns="http://www.w3.org/2000/svg">
<g clip-path="url(#clip0_210_119)">
<path fill-rule="evenodd" clip-rule="evenodd" d="M4.6597 4.55371C3.05892 4.55371 1.76123 5.85142 1.76123 7.45218V27.7415C1.76123 29.3423 3.05892 30.64 4.6597 30.64H19.1521V19.0461C19.1521 17.4453 20.4498 16.1476 22.0505 16.1476H24.949V7.45218C24.949 5.85142 23.6513 4.55371 22.0505 4.55371H4.6597Z" fill="#F5C900"/>
<path d="M24.9488 10.3507V7.45218C24.9488 6.68345 24.6434 5.94622 24.0999 5.40264C23.5563 4.85909 22.8191 4.55371 22.0503 4.55371H19.1519" stroke="#161616" stroke-width="3" stroke-linecap="round" stroke-linejoin="round"/>
<path d="M11.9059 30.64H4.6597C3.89097 30.64 3.15374 30.3345 2.61017 29.791C2.0666 29.2475 1.76123 28.5102 1.76123 27.7415V7.45218C1.76123 6.68345 2.0666 5.94622 2.61017 5.40264C3.15374 4.85909 3.89097 4.55371 4.6597 4.55371H7.55818" stroke="#161616" stroke-width="3" stroke-linecap="round" stroke-linejoin="round"/>
<path d="M36.5427 16.1475H22.0503C20.4496 16.1475 19.1519 17.4452 19.1519 19.0459V36.4368C19.1519 38.0376 20.4496 39.3352 22.0503 39.3352H36.5427C38.1435 39.3352 39.4412 38.0376 39.4412 36.4368V19.0459C39.4412 17.4452 38.1435 16.1475 36.5427 16.1475Z" fill="white"/>
<path d="M36.5427 16.1475H22.0503C20.4496 16.1475 19.1519 17.4452 19.1519 19.0459V36.4368C19.1519 38.0376 20.4496 39.3352 22.0503 39.3352H36.5427C38.1435 39.3352 39.4412 38.0376 39.4412 36.4368V19.0459C39.4412 17.4452 38.1435 16.1475 36.5427 16.1475Z" stroke="#161616" stroke-width="3" stroke-linecap="round" stroke-linejoin="round"/>
<path d="M19.8766 1.65527H6.8335L8.02187 6.3508C8.09427 6.66508 8.27146 6.94536 8.52432 7.14553C8.77718 7.3457 9.09062 7.45387 9.41314 7.45222H17.297C17.6195 7.45387 17.9329 7.3457 18.1858 7.14553C18.4387 6.94536 18.6158 6.66508 18.6883 6.3508L19.8766 1.65527Z" fill="white"/>
<path d="M19.8766 1.65527H6.8335L8.02187 6.3508C8.09427 6.66508 8.27146 6.94536 8.52432 7.14553C8.77718 7.3457 9.09062 7.45387 9.41314 7.45222H17.297C17.6195 7.45387 17.9329 7.3457 18.1858 7.14553C18.4387 6.94536 18.6158 6.66508 18.6883 6.3508L19.8766 1.65527Z" stroke="#161616" stroke-width="3" stroke-linecap="round" stroke-linejoin="round"/>
<path d="M24.9492 24.8433H33.6446" stroke="#161616" stroke-width="3" stroke-linecap="round" stroke-linejoin="round"/>
<path d="M24.9492 30.6401H33.6446" stroke="#161616" stroke-width="3" stroke-linecap="round" stroke-linejoin="round"/>
</g>
<defs>
<clipPath id="clip0_210_119">
<rect width="40.5786" height="40.5786" fill="white" transform="translate(0.312012 0.206055)"/>
</clipPath>
</defs>
</svg>
