<svg width="209" height="269" viewBox="0 0 209 269" fill="none" xmlns="http://www.w3.org/2000/svg">
<path d="M14.6026 214.522C14.7336 214.239 15.0366 214.059 15.3634 214.097L18.8418 214.5C19.2449 214.547 19.5347 214.912 19.4883 215.314C19.4388 215.715 19.0707 216.004 18.6661 215.959L15.1877 215.557C14.7846 215.509 14.4948 215.145 14.5412 214.742C14.5521 214.664 14.5706 214.592 14.6026 214.522Z" fill="white"/>
<path d="M2.42635 213.092C2.5573 212.808 2.86037 212.628 3.18709 212.666L6.6655 213.069C7.06867 213.117 7.3584 213.481 7.31199 213.883C7.26254 214.284 6.8944 214.573 6.48985 214.529L3.01146 214.126C2.60829 214.078 2.31855 213.714 2.36497 213.312C2.37579 213.233 2.39431 213.161 2.42635 213.092Z" fill="white"/>
<path d="M11.1797 206.243C11.3104 205.96 11.6131 205.78 11.9393 205.818C12.3419 205.866 12.6312 206.229 12.5849 206.631L12.1684 210.084C12.1221 210.486 11.7545 210.775 11.3475 210.729C10.9449 210.681 10.6556 210.317 10.7019 209.916L11.1184 206.463C11.1292 206.384 11.1477 206.312 11.1797 206.243Z" fill="white"/>
<path d="M9.74658 218.322C9.87734 218.039 10.18 217.859 10.5062 217.897C10.9088 217.945 11.1981 218.309 11.1518 218.71L10.7353 222.163C10.689 222.565 10.3214 222.854 9.91438 222.808C9.5118 222.761 9.2225 222.397 9.26885 221.995L9.68529 218.542C9.69471 218.466 9.71458 218.391 9.74658 218.322Z" fill="white"/>
<path d="M60.3528 193.344C60.4224 193.193 60.5449 193.063 60.7093 192.984C64.706 191.109 68.711 189.128 72.6129 187.093C72.975 186.903 73.4197 187.042 73.609 187.401C73.7984 187.76 73.6564 188.202 73.2943 188.392C69.3747 190.434 65.3506 192.424 61.3349 194.309C60.9662 194.481 60.5255 194.326 60.3538 193.96C60.2576 193.756 60.2651 193.534 60.3528 193.344Z" fill="white"/>
<path d="M72.2835 187.571C72.3488 187.43 72.4609 187.306 72.6148 187.226C126.936 158.903 170.506 115.54 195.295 65.1194C195.474 64.7561 195.918 64.6036 196.282 64.7797C196.641 64.953 196.794 65.3826 196.627 65.744C196.624 65.75 196.623 65.753 196.62 65.759C184.093 91.2369 167.045 114.782 145.954 135.733C124.995 156.554 100.549 174.316 73.2954 188.525C72.9337 188.714 72.4895 188.575 72.3003 188.216C72.1921 188.007 72.1917 187.77 72.2835 187.571Z" fill="white"/>
<path d="M80.2509 165.955C80.3093 165.828 80.4054 165.715 80.5369 165.636C118.294 142.539 149.167 111.452 169.817 75.732C170.02 75.3797 170.47 75.2595 170.824 75.4596C171.178 75.6598 171.295 76.1099 171.094 76.4592C150.32 112.393 119.273 143.66 81.3068 166.884C80.9606 167.095 80.5056 166.988 80.2946 166.644C80.1608 166.427 80.1552 166.17 80.2539 165.956L80.2509 165.955Z" fill="white"/>
<path d="M42.6314 196.95C42.8959 196.378 43.2588 195.846 43.7102 195.376C45.9055 193.097 49.5459 193.009 51.8332 195.177C54.1175 197.343 54.1969 200.961 52.0002 203.244C49.8063 205.52 46.1645 205.611 43.8772 203.443C42.7697 202.392 42.1424 200.975 42.1099 199.451C42.0929 198.576 42.2736 197.725 42.63 196.953L42.6314 196.95ZM51.7312 201.067C52.4691 199.469 52.1553 197.516 50.809 196.237C49.1101 194.626 46.4029 194.692 44.7746 196.386C43.9856 197.206 43.5631 198.279 43.5856 199.412C43.6082 200.544 44.0742 201.597 44.8967 202.377C46.5956 203.987 49.3028 203.922 50.9312 202.228C51.2687 201.878 51.5361 201.481 51.7296 201.062L51.7312 201.067Z" fill="white"/>
<path d="M194.448 54.9878C194.47 54.9396 194.498 54.8941 194.528 54.853L200.626 46.789C200.779 46.5849 201.027 46.475 201.281 46.4953C201.536 46.5155 201.758 46.6674 201.873 46.8942C203.986 51.0566 205.752 55.4227 205.769 55.4666C205.863 55.6987 205.829 55.9636 205.685 56.1645C205.539 56.3684 205.298 56.4854 205.047 56.4738L195.079 56.0239C194.805 56.0132 194.561 55.8518 194.447 55.6071C194.356 55.409 194.357 55.1838 194.446 54.9909L194.448 54.9878ZM201.085 48.618L196.547 54.6218L203.96 54.9582C203.394 53.6087 202.326 51.1472 201.088 48.6194L201.085 48.618Z" fill="white"/>
</svg>
