<svg width="69" height="97" viewBox="0 0 69 97" fill="none" xmlns="http://www.w3.org/2000/svg">
<path d="M62.9699 45.6529C62.7045 45.6476 62.4899 45.4315 62.4899 45.167V3.14468L61.9899 3.14715M62.9699 45.6529L5.80992 1.95052C5.53992 1.95052 5.31993 2.16868 5.31993 2.43643L4.91992 45.167C4.91992 45.4447 5.13993 45.6629 5.40993 45.6629C5.67993 45.653 5.90993 45.4447 5.90993 45.177L6.30992 2.92234L61.9899 2.64715V3.14715M62.9699 45.6529V45.653V46.1529C62.4322 46.1476 61.9899 45.7115 61.9899 45.167V3.14715M61.9899 3.14715L6.80523 3.4199L6.40993 45.177C6.40993 45.1779 6.40993 45.1788 6.40992 45.1797C6.40838 45.7543 5.92515 46.1443 5.42828 46.1625L5.41911 46.1629H5.40993C4.86115 46.1629 4.41992 45.7182 4.41992 45.167V45.1624H4.41994L4.81993 2.43643C4.81993 2.43551 4.81993 2.4346 4.81993 2.43369C4.82142 1.88762 5.26785 1.45128 5.8085 1.45052" fill="white" stroke="white"/>
<path d="M41.5897 12.9619H52.0997C52.4619 12.9619 52.7597 12.6725 52.7597 12.3032C52.7597 11.9339 52.4619 11.6445 52.0997 11.6445H41.5897C41.2274 11.6445 40.9297 11.9339 40.9297 12.3032C40.9297 12.6725 41.2274 12.9619 41.5897 12.9619Z" fill="white" stroke="white"/>
<path d="M37.2699 21.1826H52.0999C52.4621 21.1826 52.7599 20.8932 52.7599 20.5239C52.7599 20.1546 52.4621 19.8652 52.0999 19.8652H37.2699C36.9077 19.8652 36.6099 20.1546 36.6099 20.5239C36.6099 20.8932 36.9077 21.1826 37.2699 21.1826Z" fill="white" stroke="white"/>
<path d="M15.64 30.6533H52.1C52.4622 30.6533 52.76 30.3639 52.76 29.9946C52.76 29.6253 52.4622 29.3359 52.1 29.3359H15.64C15.2778 29.3359 14.98 29.6253 14.98 29.9946C14.98 30.3639 15.2778 30.6533 15.64 30.6533Z" fill="white" stroke="white"/>
<path d="M15.64 41.3134H52.1C52.4622 41.3134 52.76 41.024 52.76 40.6548C52.76 40.2855 52.4622 39.9961 52.1 39.9961H15.64C15.2778 39.9961 14.98 40.2854 14.98 40.6548C14.98 41.0241 15.2778 41.3134 15.64 41.3134Z" fill="white" stroke="white"/>
<path d="M51.15 48.0332C48.52 55.2327 41.93 60.3397 34.2 60.3397C26.47 60.3397 19.88 55.2327 17.25 48.0332H0.47998V72.6462H67.91V48.0332H51.14H51.15Z" fill="#FFD42E"/>
<path d="M67.92 73.1419H0.490005C0.220005 73.1419 0 72.9238 0 72.656V48.043C0 47.7753 0.220005 47.5571 0.490005 47.5571H17.26C17.47 47.5571 17.65 47.686 17.72 47.8745C20.34 55.0442 26.96 59.8636 34.2 59.8636C41.44 59.8636 48.07 55.0442 50.68 47.8745C50.75 47.686 50.93 47.5571 51.14 47.5571H67.91C68.18 47.5571 68.4 47.7753 68.4 48.043V72.656C68.4 72.9238 68.18 73.1419 67.91 73.1419H67.92ZM0.979996 72.1701H67.43V48.529H51.49C48.65 55.9069 41.75 60.8355 34.2 60.8355C26.65 60.8355 19.75 55.9069 16.91 48.529H0.970001V72.1701H0.979996Z" fill="white"/>
<path d="M16.211 94.7417L16.211 94.7417L16.2115 94.749C16.2453 95.1839 16.5537 95.5403 16.9668 95.6392L17.0044 95.6764H17.2101H17.2101H17.2102H17.2102H17.2103H17.2103H17.2104H17.2105H17.2105H17.2106H17.2106H17.2107H17.2108H17.2108H17.2109H17.2109H17.211H17.211H17.2111H17.2112H17.2112H17.2113H17.2113H17.2114H17.2115H17.2115H17.2116H17.2116H17.2117H17.2117H17.2118H17.2119H17.2119H17.212H17.212H17.2121H17.2122H17.2122H17.2123H17.2123H17.2124H17.2125H17.2125H17.2126H17.2126H17.2127H17.2127H17.2128H17.2129H17.2129H17.213H17.213H17.2131H17.2132H17.2132H17.2133H17.2133H17.2134H17.2134H17.2135H17.2136H17.2136H17.2137H17.2137H17.2138H17.2139H17.2139H17.214H17.214H17.2141H17.2142H17.2142H17.2143H17.2143H17.2144H17.2144H17.2145H17.2146H17.2146H17.2147H17.2147H17.2148H17.2149H17.2149H17.215H17.215H17.2151H17.2151H17.2152H17.2153H17.2153H17.2154H17.2154H17.2155H17.2156H17.2156H17.2157H17.2157H17.2158H17.2159H17.2159H17.216H17.216H17.2161H17.2161H17.2162H17.2163H17.2163H17.2164H17.2164H17.2165H17.2166H17.2166H17.2167H17.2167H17.2168H17.2168H17.2169H17.217H17.217H17.2171H17.2171H17.2172H17.2173H17.2173H17.2174H17.2174H17.2175H17.2176H17.2176H17.2177H17.2177H17.2178H17.2178H17.2179H17.218H17.218H17.2181H17.2181H17.2182H17.2183H17.2183H17.2184H17.2184H17.2185H17.2185H17.2186H17.2187H17.2187H17.2188H17.2188H17.2189H17.219H17.219H17.2191H17.2191H17.2192H17.2192H17.2193H17.2194H17.2194H17.2195H17.2195H17.2196H17.2197H17.2197H17.2198H17.2198H17.2199H17.22H17.22H17.2201H17.2201H17.2202H17.2202H17.2203H17.2204H17.2204H17.2205H17.2205H17.2206H17.2207H17.2207H17.2208H17.2208H17.2209H17.2209H17.221H17.2211H17.2211H17.2212H17.2212H17.2213H17.2214H17.2214H17.2215H17.2215H17.2216H17.2217H17.2217H17.2218H17.2218H17.2219H17.2219H17.222H17.2221H17.2221H17.2222H17.2222H17.2223H17.2224H17.2224H17.2225H17.2225H17.2226H17.2226H17.2227H17.2228H17.2228H17.2229H17.2229H17.223H17.2231H17.2231H17.2232H17.2232H17.2233H17.2234H17.2234H17.2235H17.2235H17.2236H17.2236H17.2237H17.2238H17.2238H17.2239H17.2239H17.224H17.2241H17.2241H17.2242H17.2242H17.2243H17.2243H17.2244H17.2245H17.2245H17.2246H17.2246H17.2247H17.2248H17.2248H17.2249H17.2249H17.225H17.225H17.2251H17.2252H17.2252H17.2253H17.2253H17.2254H17.2255H17.2255H17.2256H17.2256H17.2257H17.2258H17.2258H17.2259H17.2259H17.226H17.226H17.2261H17.2262H17.2262H17.2263H17.2263H17.2264H17.2265H17.2265H17.2266H17.2266H17.2267H17.2267H17.2268H17.2269H17.2269H17.227H17.227H17.2271H17.2272H17.2272H17.2273H17.2273H17.2274H17.2275H17.2275H17.2276H17.2276H17.2277H17.2277H17.2278H17.2279H17.2279H17.228H17.228H17.2281H17.2282H17.2282H17.2283H17.2283H17.2284H17.2284H17.2285H17.2286H17.2286H17.2287H17.2287H17.2288H17.2289H17.2289H17.229H17.229H17.2291H17.2292H17.2292H17.2293H17.2293H17.2294H17.2294H17.2295H17.2296H17.2296H17.2297H17.2297H17.2298H17.2299H17.2299H17.23H17.23H17.2301H17.2301H17.2302H17.2303H17.2303H17.2304H17.2304H17.2305H17.2306H17.2306H17.2307H17.2307H17.2308H17.2309H17.2309H17.231H17.231H17.2311H17.2311H17.2312H17.2313H17.2313H17.2314H17.2314H17.2315H17.2316H17.2316H17.2317H17.2317H17.2318H17.2318H17.2319H17.232H17.232H17.2321H17.2321H17.2322H17.2323H17.2323H17.2324H17.2324H17.2325H17.2325H17.2326H17.2327H17.2327H17.2328H17.2328H17.2329H17.233H17.233H17.2331H17.2331H17.2332H17.2333H17.2333H17.2334H17.2334H17.2335H17.2335H17.2336H17.2337H17.2337H17.2338H17.2338H17.2339H17.234H17.234H17.2341H17.2341H17.2342H17.2342H17.2343H17.2344H17.2344H17.2345H17.2345H17.2346H17.2347H17.2347H17.2348H17.2348H17.2349H17.235H17.235H17.2351H17.2351H17.2352H17.2352H17.2353H17.2354H17.2354H17.2355H17.2355H17.2356H17.2357H17.2357H17.2358H17.2358H17.2359H17.2359H17.236H17.2361H17.2361H17.2362H17.2362H17.2363H17.2364H17.2364H17.2365H17.2365H17.2366H17.2367H17.2367H17.2368H17.2368H17.2369H17.2369H17.237H17.2371H17.2371H17.2372H17.2372H17.2373H17.2374H17.2374H17.2375H17.2375H17.2376H17.2376H17.2377H17.2378H17.2378H17.2379H17.2379H17.238H17.2381H17.2381H17.2382H17.2382H17.2383H17.2384H17.2384H17.2385H17.2385H17.2386H17.2386H17.2387H17.2388H17.2388H17.2389H17.2389H17.239H17.2391H17.2391H17.2392H17.2392H17.2393H17.2393H17.2394H17.2395H17.2395H17.2396H17.2396H17.2397H17.2398H17.2398H17.2399H17.2399H17.24H17.24H17.2584L17.2767 95.6751C17.8004 95.6366 18.2388 95.1892 18.1989 94.6274C17.8608 89.132 17.9603 83.5677 18.5073 78.0828C18.5677 77.5265 18.153 77.0563 17.6248 76.9982C17.073 76.9373 16.593 77.3418 16.5332 77.8758L16.5331 77.8758L16.5326 77.8813C15.9699 83.4615 15.8593 89.1412 16.211 94.7417Z" fill="white" stroke="white"/>
<path d="M28.4809 87.5449H28.481H28.481H28.4811H28.4811H28.4812H28.4812H28.4813H28.4814H28.4814H28.4815H28.4815H28.4816H28.4816H28.4817H28.4817H28.4818H28.4818H28.4819H28.4819H28.482H28.482H28.4821H28.4822H28.4822H28.4823H28.4823H28.4824H28.4824H28.4825H28.4825H28.4826H28.4826H28.4827H28.4827H28.4828H28.4828H28.4828H28.4829H28.4829H28.483H28.483H28.4831H28.4831H28.4832H28.4832H28.4833H28.4833H28.4834H28.4834H28.4835H28.4835H28.4835H28.4836H28.4836H28.4837H28.4837H28.4838H28.4838H28.4839H28.4839H28.4839H28.484H28.484H28.4841H28.4841H28.4842H28.4842H28.4842H28.4843H28.4843H28.4844H28.4844H28.4845H28.4845H28.4845H28.4846H28.4846H28.4847H28.4847H28.4847H28.4848H28.4848H28.4849H28.4849H28.4849H28.485H28.485H28.4851H28.4851H28.4851H28.4852H28.4852H28.4852H28.4853H28.4853H28.4854H28.4854H28.4854H28.4855H28.4855H28.4855H28.4856H28.4856H28.4856H28.4857H28.4857H28.4857H28.4858H28.4858H28.4859H28.4859H28.4859H28.486H28.486H28.486H28.4861H28.4861H28.4861H28.4862H28.4862H28.4862H28.4862H28.4863H28.4863H28.4863H28.4864H28.4864H28.4864H28.4865H28.4865H28.4865H28.4866H28.4866H28.4866H28.4867H28.4867H28.4867H28.4867H28.4868H28.4868H28.4868H28.4869H28.4869H28.4869H28.4869H28.487H28.487H28.487H28.4871H28.4871H28.4871H28.4871H28.4872H28.4872H28.4872H28.4873H28.4873H28.4873H28.4873H28.4874H28.4874H28.4874H28.4874H28.4875H28.4875H28.4875H28.4875H28.4876H28.4876H28.4876H28.4876H28.4877H28.4877H28.4877H28.4877H28.4878H28.4878H28.4878H28.4878H28.4878H28.4879H28.4879H28.4879H28.4879H28.488H28.488H28.488H28.488H28.4881H28.4881H28.4881H28.4881H28.4881H28.4882H28.4882H28.4882H28.4882H28.4882H28.4883H28.4883H28.4883H28.4883H28.4883H28.4884H28.4884H28.4884H28.4884H28.4884H28.4885H28.4885H28.4885H28.4885H28.4885H28.4886H28.4886H28.4886H28.4886H28.4886H28.4886H28.4887H28.4887H28.4887H28.4887H28.4887H28.4888H28.4888H28.4888H28.4888H28.4888H28.4888H28.4889H28.4889H28.4889H28.4889H28.4889H28.4889H28.4889H28.489H28.489H28.489H28.489H28.489H28.489H28.4891H28.4891H28.4891H28.4891H28.4891H28.4891H28.4891H28.4892H28.4892H28.4892H28.4892H28.4892H28.4892H28.4892H28.4893H28.4893H28.4893H28.4893H28.4893H28.4893H28.4893H28.4893H28.4894H28.4894H28.4894H28.4894H28.4894H28.4894H28.4894H28.4894H28.4895H28.4895H28.4895H28.4895H28.4895H28.4895H28.4895H28.4895H28.4895H28.4896H28.4896H28.4896H28.4896H28.4896H28.4896H28.4896H28.4896H28.4896H28.4896H28.4897H28.4897H28.4897H28.4897H28.4897H28.4897H28.4897H28.4897H28.4897H28.4897H28.4897H28.4898H28.4898H28.4898H28.4898H28.4898H28.4898H28.4898H28.4898H28.4898H28.4898H28.4898H28.4898H28.4899H28.4899H28.4899H28.4899H28.4899H28.4899H28.4899H28.4899H28.4899H28.4899H28.4899H28.49H28.49H28.49H28.49H28.49H28.49H28.49H28.49H28.4901H28.4901H28.4901H28.4901H28.4901H28.4901H28.4901H28.4901H28.4901H28.4901H28.4902H28.4902H28.4902H28.4902H28.4902H28.4902H28.4902H28.4902H28.4902H28.4902H28.4902H28.4902H28.4903H28.4903H28.4903H28.4903H28.4903H28.4903H28.4903H28.4903H28.4903H28.4903H28.4903C28.9999 87.5449 29.476 87.1402 29.4803 86.5766L29.6901 78.542C29.7088 77.9906 29.2609 77.5308 28.7103 77.5308H28.7103H28.7102H28.7102H28.7101H28.71H28.71H28.7099H28.7099H28.7098H28.7098H28.7097H28.7096H28.7096H28.7095H28.7095H28.7094H28.7094H28.7093H28.7093H28.7092H28.7092H28.7091H28.709H28.709H28.7089H28.7089H28.7088H28.7088H28.7087H28.7087H28.7086H28.7086H28.7085H28.7085H28.7084H28.7084H28.7083H28.7083H28.7082H28.7082H28.7081H28.7081H28.708H28.708H28.7079H28.7079H28.7078H28.7078H28.7077H28.7077H28.7076H28.7076H28.7075H28.7075H28.7074H28.7074H28.7074H28.7073H28.7073H28.7072H28.7072H28.7071H28.7071H28.707H28.707H28.7069H28.7069H28.7069H28.7068H28.7068H28.7067H28.7067H28.7066H28.7066H28.7066H28.7065H28.7065H28.7064H28.7064H28.7063H28.7063H28.7063H28.7062H28.7062H28.7061H28.7061H28.7061H28.706H28.706H28.7059H28.7059H28.7059H28.7058H28.7058H28.7057H28.7057H28.7057H28.7056H28.7056H28.7055H28.7055H28.7055H28.7054H28.7054H28.7054H28.7053H28.7053H28.7052H28.7052H28.7052H28.7051H28.7051H28.7051H28.705H28.705H28.705H28.7049H28.7049H28.7049H28.7048H28.7048H28.7048H28.7047H28.7047H28.7047H28.7046H28.7046H28.7046H28.7045H28.7045H28.7045H28.7044H28.7044H28.7044H28.7043H28.7043H28.7043H28.7042H28.7042H28.7042H28.7041H28.7041H28.7041H28.704H28.704H28.704H28.704H28.7039H28.7039H28.7039H28.7038H28.7038H28.7038H28.7038H28.7037H28.7037H28.7037H28.7036H28.7036H28.7036H28.7036H28.7035H28.7035H28.7035H28.7034H28.7034H28.7034H28.7034H28.7033H28.7033H28.7033H28.7033H28.7032H28.7032H28.7032H28.7032H28.7031H28.7031H28.7031H28.7031H28.703H28.703H28.703H28.703H28.7029H28.7029H28.7029H28.7029H28.7028H28.7028H28.7028H28.7028H28.7028H28.7027H28.7027H28.7027H28.7027H28.7026H28.7026H28.7026H28.7026H28.7026H28.7025H28.7025H28.7025H28.7025H28.7025H28.7024H28.7024H28.7024H28.7024H28.7023H28.7023H28.7023H28.7023H28.7023H28.7022H28.7022H28.7022H28.7022H28.7022H28.7022H28.7021H28.7021H28.7021H28.7021H28.7021H28.702H28.702H28.702H28.702H28.702H28.702H28.7019H28.7019H28.7019H28.7019H28.7019H28.7019H28.7018H28.7018H28.7018H28.7018H28.7018H28.7018H28.7017H28.7017H28.7017H28.7017H28.7017H28.7017H28.7016H28.7016H28.7016H28.7016H28.7016H28.7016H28.7016H28.7015H28.7015H28.7015H28.7015H28.7015H28.7015H28.7015H28.7014H28.7014H28.7014H28.7014H28.7014H28.7014H28.7014H28.7014H28.7013H28.7013H28.7013H28.7013H28.7013H28.7013H28.7013H28.7013H28.7012H28.7012H28.7012H28.7012H28.7012H28.7012H28.7012H28.7012H28.7012H28.7011H28.7011H28.7011H28.7011H28.7011H28.7011H28.7011H28.7011H28.7011H28.701H28.701H28.701H28.701H28.701H28.701H28.701H28.701H28.701H28.701H28.701H28.7009H28.7009H28.7009H28.7009H28.7009H28.7009H28.7009H28.7009H28.7009H28.7009H28.7009H28.7008H28.7008H28.7008H28.7008H28.7008H28.7008H28.7008H28.7008H28.7008H28.7008H28.7008H28.7008H28.7008H28.7008H28.7007H28.7007H28.7007H28.7007H28.7007H28.7007H28.7007H28.7007H28.7007H28.7007H28.7007H28.7007H28.7007H28.7007H28.7007H28.7006H28.7006H28.7006H28.7006H28.7006H28.7006H28.7006H28.7006H28.7006H28.7006H28.7006H28.7006H28.7006H28.7006H28.7006H28.7006H28.7006H28.7006H28.7006H28.7006H28.7005H28.7005H28.7005H28.7005H28.7005H28.7005H28.7005H28.7005H28.7005H28.7005H28.7005H28.7005H28.7005H28.7005H28.7005H28.7005H28.7005H28.7005H28.7005H28.7005H28.7005H28.7005H28.7005H28.7005H28.7005H28.7005H28.7005H28.7004H28.7004H28.7004H28.7004H28.7004H28.7004H28.7004H28.7004H28.7004H28.7004H28.7004H28.7004H28.7004H28.7004H28.7004H28.7004H28.7004H28.7004H28.7004H28.7004H28.7004H28.7004H28.7004H28.7004H28.7004H28.7004H28.7004H28.7004H28.7004H28.7004H28.7004H28.7004H28.7004H28.7004H28.7004H28.7004H28.7004H28.7004H28.7004H28.7004H28.7004H28.7004H28.7004H28.7004H28.7004H28.7004H28.7004H28.7004H28.7004H28.7004H28.7004H28.7004H28.7004H28.7004H28.7004H28.7004H28.7004H28.7004H28.7004H28.7004H28.7004H28.7004H28.7004H28.7003H28.7003H28.7003H28.7003H28.7003H28.7003H28.7003H28.7003H28.7003H28.7003H28.7003H28.7003H28.7003H28.7003H28.7003H28.7003H28.7003H28.7003C28.1908 77.5308 27.7146 77.9355 27.7104 78.4991L27.5006 86.5337C27.4818 87.0851 27.9298 87.5449 28.4803 87.5449H28.4804H28.4805H28.4805H28.4806H28.4806H28.4807H28.4807H28.4808H28.4809H28.4809Z" fill="white" stroke="white"/>
</svg>
