<svg width="51" height="22" viewBox="0 0 51 22" fill="none" xmlns="http://www.w3.org/2000/svg">
<path d="M50.0386 1.74585L0.277084 1.42259C0.130391 1.42259 0 1.29329 0 1.14782C0 1.00235 0.130391 0.873047 0.277084 0.873047L50.0386 1.19631C50.1853 1.19631 50.3157 1.32561 50.3157 1.47108C50.3157 1.61655 50.1853 1.74585 50.0386 1.74585Z" fill="white"/>
<path d="M45.1649 11.573L5.13402 11.2497C4.98732 11.2497 4.85693 11.1204 4.85693 10.975C4.85693 10.8295 5.00362 10.7164 5.13402 10.7002L45.1649 11.0235C45.3116 11.0235 45.442 11.1528 45.442 11.2982C45.442 11.4437 45.3116 11.573 45.1649 11.573Z" fill="white"/>
<path d="M50.0386 21.4006L0.277084 21.0774C0.130391 21.0774 0 20.9481 0 20.8026C0 20.6571 0.130391 20.5278 0.277084 20.5278L50.0386 20.8511C50.1853 20.8511 50.3157 20.9804 50.3157 21.1259C50.3157 21.2713 50.1853 21.4006 50.0386 21.4006Z" fill="white"/>
</svg>
